<svg role="region" viewBox="709.9936490538903 47.5 533.0127018922194 600" width="533.0127018922194" height="600" xmlns="http://www.w3.org/2000/svg" style="font-family: &quot;Benton Sans&quot;, Helvetica, sans-serif; font-size: 18px; text-decoration: none solid rgb(58, 54, 69); color: rgb(58, 54, 69); text-anchor: middle; transform-origin: 834.5px 472.5px; white-space: normal; line-height: 28.8px; marker: none; stroke-linecap: round; stroke-linejoin: round;"><defs style="display: inline; transform-origin: 0px 0px;"><pattern id="square2-grid" height="50" patternUnits="userSpaceOnUse" width="50" x="0" y="0" style="transform-origin: 0px 0px;"><rect height="50" opacity="0.4" width="50" x="0" y="0" style="opacity: 0.4; transform-origin: 0px 0px; fill: none; stroke: rgb(24, 24, 36);"/></pattern><pattern id="square-dots" height="25" patternUnits="userSpaceOnUse" width="25" x="-4" y="-4" style="transform-origin: 0px 0px;"><circle cx="4" cy="4" opacity="0.6" r="2" style="opacity: 0.6; transform-origin: 2px 2px; fill: rgb(24, 24, 36); transform-box: fill-box;"/></pattern><pattern id="square-grid" height="125" patternUnits="userSpaceOnUse" width="125" x="0" y="0" style="transform-origin: 0px 0px;"><g opacity="0.4" style="opacity: 0.4; transform-origin: 62.5px 62.5px; transform-box: fill-box;"><line x1="25" x2="25" y1="0" y2="125" style="opacity: 1; transform-origin: 0px 62.5px; fill: none; stroke: rgb(24, 24, 36); transform-box: fill-box;"/><line x1="0" x2="125" y1="25" y2="25" style="opacity: 1; transform-origin: 62.5px 0px; fill: none; stroke: rgb(24, 24, 36); transform-box: fill-box;"/><line x1="50" x2="50" y1="0" y2="125" style="opacity: 1; transform-origin: 0px 62.5px; fill: none; stroke: rgb(24, 24, 36); transform-box: fill-box;"/><line x1="0" x2="125" y1="50" y2="50" style="opacity: 1; transform-origin: 62.5px 0px; fill: none; stroke: rgb(24, 24, 36); transform-box: fill-box;"/><line x1="75" x2="75" y1="0" y2="125" style="opacity: 1; transform-origin: 0px 62.5px; fill: none; stroke: rgb(24, 24, 36); transform-box: fill-box;"/><line x1="0" x2="125" y1="75" y2="75" style="opacity: 1; transform-origin: 62.5px 0px; fill: none; stroke: rgb(24, 24, 36); transform-box: fill-box;"/><line x1="100" x2="100" y1="0" y2="125" style="opacity: 1; transform-origin: 0px 62.5px; fill: none; stroke: rgb(24, 24, 36); transform-box: fill-box;"/><line x1="0" x2="125" y1="100" y2="100" style="opacity: 1; transform-origin: 62.5px 0px; fill: none; stroke: rgb(24, 24, 36); transform-box: fill-box;"/></g><rect height="125" width="125" x="0" y="0" style="transform-origin: 0px 0px; fill: none; stroke: rgb(24, 24, 36);"/></pattern><pattern id="tri-dots" height="43.302" patternUnits="userSpaceOnUse" width="25" x="0" y="-4" style="transform-origin: 0px 0px;"><circle cx="0" cy="4" opacity="0.6" r="2" style="opacity: 0.6; transform-origin: 2px 2px; fill: rgb(24, 24, 36); transform-box: fill-box;"/><circle cx="25" cy="4" opacity="0.6" r="2" style="opacity: 0.6; transform-origin: 2px 2px; fill: rgb(24, 24, 36); transform-box: fill-box;"/><circle cx="12.5" cy="25.651" opacity="0.6" r="2" style="opacity: 0.6; transform-origin: 2px 2px; fill: rgb(24, 24, 36); transform-box: fill-box;"/></pattern><pattern id="tri-grid" height="43.302" patternUnits="userSpaceOnUse" width="25" x="0" y="0" style="transform-origin: 0px 0px;"><g opacity="0.4" style="opacity: 0.4; transform-origin: 12.5px 21.651px; transform-box: fill-box;"><line x1="0" x2="25" y1="0" y2="0" style="opacity: 1; transform-origin: 12.5px 0px; fill: none; stroke: rgb(24, 24, 36); transform-box: fill-box;"/><line x1="0" x2="25" y1="21.651" y2="21.651" style="opacity: 1; transform-origin: 12.5px 0px; fill: none; stroke: rgb(24, 24, 36); transform-box: fill-box;"/><line x1="0" x2="25" y1="43.302" y2="43.302" style="opacity: 1; transform-origin: 12.5px 0px; fill: none; stroke: rgb(24, 24, 36); transform-box: fill-box;"/><line x1="0" x2="25" y1="0" y2="43.302" style="opacity: 1; transform-origin: 12.5px 21.651px; fill: none; stroke: rgb(24, 24, 36); transform-box: fill-box;"/><line x1="25" x2="0" y1="0" y2="43.302" style="opacity: 1; transform-origin: 12.5px 21.651px; fill: none; stroke: rgb(24, 24, 36); transform-box: fill-box;"/></g></pattern><pattern id="tri2-dots" height="25" patternUnits="userSpaceOnUse" width="43.302" x="-4" y="0" style="transform-origin: 0px 0px;"><circle cx="4" cy="0" opacity="0.6" r="2" style="opacity: 0.6; transform-origin: 2px 2px; fill: rgb(24, 24, 36); transform-box: fill-box;"/><circle cx="4" cy="25" opacity="0.6" r="2" style="opacity: 0.6; transform-origin: 2px 2px; fill: rgb(24, 24, 36); transform-box: fill-box;"/><circle cx="25.651" cy="12.5" opacity="0.6" r="2" style="opacity: 0.6; transform-origin: 2px 2px; fill: rgb(24, 24, 36); transform-box: fill-box;"/></pattern><pattern id="tri2-grid" height="25" patternUnits="userSpaceOnUse" width="43.302" x="0" y="0" style="transform-origin: 0px 0px;"><g opacity="0.4" style="opacity: 0.4; transform-origin: 21.651px 12.5px; transform-box: fill-box;"><line x1="0" x2="0" y1="0" y2="25" style="opacity: 1; transform-origin: 0px 12.5px; fill: none; stroke: rgb(24, 24, 36); transform-box: fill-box;"/><line x1="21.651" x2="21.651" y1="0" y2="25" style="opacity: 1; transform-origin: 0px 12.5px; fill: none; stroke: rgb(24, 24, 36); transform-box: fill-box;"/><line x1="43.302" x2="43.302" y1="0" y2="25" style="opacity: 1; transform-origin: 0px 12.5px; fill: none; stroke: rgb(24, 24, 36); transform-box: fill-box;"/><line x1="0" x2="43.302" y1="0" y2="25" style="opacity: 1; transform-origin: 21.651px 12.5px; fill: none; stroke: rgb(24, 24, 36); transform-box: fill-box;"/><line x1="0" x2="43.302" y1="25" y2="0" style="opacity: 1; transform-origin: 21.651px 12.5px; fill: none; stroke: rgb(24, 24, 36); transform-box: fill-box;"/></g></pattern><pattern id="square-checked" height="50" patternUnits="userSpaceOnUse" width="50" x="0" y="0" style="transform-origin: 0px 0px;"><rect height="25" opacity="0.4" width="25" x="0" y="0" style="opacity: 0.4; transform-origin: 0px 0px; fill: rgb(24, 24, 36);"/><rect height="25" opacity="0.4" width="25" x="25" y="25" style="opacity: 0.4; transform-origin: 0px 0px; fill: rgb(24, 24, 36);"/></pattern><radialGradient id="sphere-gradient" cx="65%" cy="35%" r="65%" style="transform-origin: 0px 0px;"><stop offset="0" stop-color="white" stop-opacity="0.3" style="transform-origin: 0px 0px;"/><stop offset="0.32" stop-color="white" stop-opacity="0" style="transform-origin: 0px 0px;"/><stop offset="0.33" stop-opacity="0" style="transform-origin: 0px 0px;"/><stop offset="1" stop-opacity="0.2" style="transform-origin: 0px 0px;"/></radialGradient><linearGradient id="card-gradient" style="transform-origin: 0px 0px;"><stop offset="0" stop-color="#999" style="transform-origin: 0px 0px;"/><stop offset="0.08" stop-color="#bbb" style="transform-origin: 0px 0px;"/><stop offset="0.92" stop-color="#bbb" style="transform-origin: 0px 0px;"/><stop offset="1" stop-color="#999" style="transform-origin: 0px 0px;"/></linearGradient><filter id="handdrawn" height="140%" width="140%" x="-20%" y="-20%" style="transform-origin: 0px 0px;"><feTurbulence baseFrequency="0.004 0.004" numOctaves="26" result="turbulence" stitchTiles="stitch" type="fractalNoise" style="transform-origin: 0px 0px;"/><feDisplacementMap in="SourceGraphic" in2="turbulence" result="displacementMap" scale="20" xChannelSelector="R" yChannelSelector="G" style="transform-origin: 0px 0px;"/></filter><filter id="pencil" filterUnits="objectBoundingBox" height="110%" width="110%" x="-10%" y="-10%" style="transform-origin: 0px 0px;"><feTurbulence baseFrequency="1.2" numOctaves="3" result="noise" type="fractalNoise" style="transform-origin: 0px 0px;"/><feDisplacementMap in="SourceGraphic" result="newSource" scale="2" xChannelSelector="R" yChannelSelector="G" style="transform-origin: 0px 0px;"/></filter><filter id="outline" style="transform-origin: 0px 0px;"><feMorphology in="SourceAlpha" operator="dilate" radius="1.2" result="DILATED" style="transform-origin: 0px 0px;"/><feFlood flood-color="var(--canvas-bg)" flood-opacity="1" result="WHITE" style="transform-origin: 0px 0px;"/><feComposite in="WHITE" in2="DILATED" operator="in" result="OUTLINE" style="transform-origin: 0px 0px;"/><feMerge style="transform-origin: 0px 0px;"><feMergeNode in="OUTLINE" style="transform-origin: 0px 0px;"/><feMergeNode in="SourceGraphic" style="transform-origin: 0px 0px;"/></feMerge></filter><symbol id="suit-c" height="24" viewBox="-12 -12 24 24" width="24" x="-12" y="-12" style="transform-origin: 0px 0px;"><path d="m0-10c2.3.1 4.2 1.9 4.3 4.2 0 1.6-.9 3-2.3 3.8.8-.3 1.6-.5 2.5-.5 2.4-.1 4.4 1.7 4.5 4.1v.2c0 2.3-1.9 4.2-4.2 4.2-.1 0-.2 0-.3 0-1.2-.1-2.4-.4-3.5-1 0 0-.3 2 2 5h-6c2.3-3 2-5 2-5-1.1.6-2.3.9-3.5 1-2.3.2-4.3-1.6-4.5-3.9 0-.1 0-.2 0-.3 0-2.4 1.9-4.3 4.3-4.3h.2c.9 0 1.7.2 2.5.5-1.4-.8-2.3-2.2-2.3-3.8.1-2.3 2-4.1 4.3-4.2z" style="transform-origin: 9px 10px; transform-box: fill-box;"/></symbol><symbol id="suit-s" height="24" viewBox="-12 -12 24 24" width="24" x="-12" y="-12" style="transform-origin: 0px 0px;"><path d="m0-10c-3 5-8 7-8 12 .1 2.1 1.9 3.9 4 4 1.1.1 2.2-.2 3-1 0 0 .3 2-2 5h6c-2-3-2-5-2-5 .8.8 1.9 1.1 3 1 2.1-.1 3.9-1.9 4-4 0-5-5-7-8-12z" style="transform-origin: 8px 10px; transform-box: fill-box;"/></symbol><symbol id="suit-h" height="24" viewBox="-12 -12 24 24" width="24" x="-12" y="-12" style="transform-origin: 0px 0px;"><path d="m0 8.5-1.3-1.3c-4.6-4.1-7.7-6.9-7.7-10.3-.1-2.7 2.1-4.9 4.8-5h.2c1.5 0 3.1.7 4 1.9 1-1.2 2.5-1.9 4-1.9 2.8-.1 4.9 2.1 5 4.8v.2c0 3.4-3.1 6.2-7.7 10.3z" style="transform-origin: 9.00164px 8.30164px; transform-box: fill-box;"/></symbol><symbol id="suit-d" height="24" viewBox="-12 -12 24 24" width="24" x="-12" y="-12" style="transform-origin: 0px 0px;"><path d="m7 0-7 10-7-10 7-10" style="transform-origin: 7px 10px; transform-box: fill-box;"/></symbol><pattern id="card-bg" height="8" patternUnits="userSpaceOnUse" width="6" style="transform-origin: 0px 0px;"><rect fill="#0f82f2" height="8" width="6" style="transform-origin: 0px 0px; fill: rgb(15, 130, 242);"/><line stroke="#eee" stroke-width="1" x2="6" y2="8" style="transform-origin: 3px 4px; stroke: rgb(238, 238, 238); transform-box: fill-box;"/><line stroke="#eee" stroke-width="1" x1="6" y2="8" style="transform-origin: 3px 4px; stroke: rgb(238, 238, 238); transform-box: fill-box;"/></pattern></defs><rect x="-834.5" y="-472.5" width="1669" height="945" fill="none" style="display: inline; opacity: 0.25; transform-origin: 0px 0px; fill: none;"/><g style="display: inline; transform-origin: 216.506px 250px; transform-box: fill-box;"><g data-testid="number-cube" transform="translate(976.5 347.5)  " style="transform: matrix(1, 0, 0, 1, 976.5, 347.5); transform-origin: 0px 0px; transform-box: view-box;"><path d="M0,0L0,250L-216.50635094610965,125L-216.50635094610965,-125Z" fill="#e53935" style="transform: none; transform-origin: 108.253px 187.5px; fill: #e53935; stroke: rgb(255, 255, 255); transform-box: fill-box;"/><path d="M0,0L0,250L216.50635094610965,125L216.50635094610965,-125Z" fill="#d32f2f" style="transform: none; transform-origin: 108.253px 187.5px; fill: #d32f2f; stroke: rgb(255, 255, 255); transform-box: fill-box;"/><path d="M0,0L216.50635094610965,-125L0,-250L-216.50635094610965,-125Z" fill="#f44336" style="transform: none; transform-origin: 216.506px 125px; fill: #f44336; stroke: rgb(255, 255, 255); transform-box: fill-box;"/><path d="M0,225 216.50635094610965,100M0,200 216.50635094610965,75M0,175 216.50635094610965,50M0,150 216.50635094610965,25M0,125 216.50635094610965,0M0,100 216.50635094610965,-25M0,75 216.50635094610965,-50M0,50 216.50635094610965,-75M0,25 216.50635094610965,-100M21.650635094610966,237.5V-12.5M21.650635094610966,-12.5 -194.8557158514987,-137.5M43.30127018922193,225V-25M43.30127018922193,-25 -173.20508075688772,-150M64.9519052838329,212.5V-37.5M64.9519052838329,-37.5 -151.55444566227675,-162.5M86.60254037844386,200V-50M86.60254037844386,-50 -129.9038105676658,-175M108.25317547305482,187.5V-62.5M108.25317547305482,-62.5 -108.25317547305482,-187.5M129.9038105676658,175V-75M129.9038105676658,-75 -86.60254037844386,-200M151.55444566227675,162.5V-87.5M151.55444566227675,-87.5 -64.9519052838329,-212.5M173.20508075688772,150V-100M173.20508075688772,-100 -43.30127018922193,-225M194.8557158514987,137.5V-112.5M194.8557158514987,-112.5 -21.650635094610966,-237.5M0,225 -216.50635094610965,100M0,200 -216.50635094610965,75M0,175 -216.50635094610965,50M0,150 -216.50635094610965,25M0,125 -216.50635094610965,0M0,100 -216.50635094610965,-25M0,75 -216.50635094610965,-50M0,50 -216.50635094610965,-75M0,25 -216.50635094610965,-100M-21.650635094610966,237.5V-12.5M-21.650635094610966,-12.5 194.8557158514987,-137.5M-43.30127018922193,225V-25M-43.30127018922193,-25 173.20508075688772,-150M-64.9519052838329,212.5V-37.5M-64.9519052838329,-37.5 151.55444566227675,-162.5M-86.60254037844386,200V-50M-86.60254037844386,-50 129.9038105676658,-175M-108.25317547305482,187.5V-62.5M-108.25317547305482,-62.5 108.25317547305482,-187.5M-129.9038105676658,175V-75M-129.9038105676658,-75 86.60254037844386,-200M-151.55444566227675,162.5V-87.5M-151.55444566227675,-87.5 64.9519052838329,-212.5M-173.20508075688772,150V-100M-173.20508075688772,-100 43.30127018922193,-225M-194.8557158514987,137.5V-112.5M-194.8557158514987,-112.5 21.650635094610966,-237.5" style="transform: none; transform-origin: 216.506px 237.5px; stroke: rgb(255, 255, 255); transform-box: fill-box;"/></g></g><path d="" style="display: inline; transform-origin: 0px 0px; fill: none; stroke: rgb(255, 255, 255); stroke-width: 7px; transform-box: fill-box;"/><path d="" style="display: inline; transform-origin: 0px 0px; fill: none; stroke: rgb(15, 130, 242); stroke-width: 3px; transform-box: fill-box;"/></svg>