<svg role="region" viewBox="-2480.457468946294 -846.264505631403 639.6508164881393 625" aria-label="Empty Canvas" width="639.6508164881393" height="625" xmlns="http://www.w3.org/2000/svg" style="font-family: &quot;Benton Sans&quot;, Helvetica, sans-serif; font-size: 18px; text-decoration: none solid rgb(58, 54, 69); color: rgb(58, 54, 69); text-anchor: middle; transform-origin: 960px 479px; white-space: normal; line-height: 28.8px; marker: none; stroke-linecap: round; stroke-linejoin: round;"><defs style="display: inline; transform-origin: 0px 0px;"><pattern id="square2-grid" height="50" patternUnits="userSpaceOnUse" width="50" x="0" y="0" style="transform-origin: 0px 0px;"><rect height="50" opacity="0.4" width="50" x="0" y="0" style="opacity: 0.4; transform-origin: 0px 0px; fill: none; stroke: rgb(24, 24, 36);"/></pattern><pattern id="square-dots" height="25" patternUnits="userSpaceOnUse" width="25" x="-4" y="-4" style="transform-origin: 0px 0px;"><circle cx="4" cy="4" opacity="0.6" r="2" style="opacity: 0.6; transform-origin: 2px 2px; fill: rgb(24, 24, 36); transform-box: fill-box;"/></pattern><pattern id="square-grid" height="125" patternUnits="userSpaceOnUse" width="125" x="0" y="0" style="transform-origin: 0px 0px;"><g opacity="0.4" style="opacity: 0.4; transform-origin: 62.5px 62.5px; transform-box: fill-box;"><line x1="25" x2="25" y1="0" y2="125" style="opacity: 1; transform-origin: 0px 62.5px; fill: none; stroke: rgb(24, 24, 36); transform-box: fill-box;"/><line x1="0" x2="125" y1="25" y2="25" style="opacity: 1; transform-origin: 62.5px 0px; fill: none; stroke: rgb(24, 24, 36); transform-box: fill-box;"/><line x1="50" x2="50" y1="0" y2="125" style="opacity: 1; transform-origin: 0px 62.5px; fill: none; stroke: rgb(24, 24, 36); transform-box: fill-box;"/><line x1="0" x2="125" y1="50" y2="50" style="opacity: 1; transform-origin: 62.5px 0px; fill: none; stroke: rgb(24, 24, 36); transform-box: fill-box;"/><line x1="75" x2="75" y1="0" y2="125" style="opacity: 1; transform-origin: 0px 62.5px; fill: none; stroke: rgb(24, 24, 36); transform-box: fill-box;"/><line x1="0" x2="125" y1="75" y2="75" style="opacity: 1; transform-origin: 62.5px 0px; fill: none; stroke: rgb(24, 24, 36); transform-box: fill-box;"/><line x1="100" x2="100" y1="0" y2="125" style="opacity: 1; transform-origin: 0px 62.5px; fill: none; stroke: rgb(24, 24, 36); transform-box: fill-box;"/><line x1="0" x2="125" y1="100" y2="100" style="opacity: 1; transform-origin: 62.5px 0px; fill: none; stroke: rgb(24, 24, 36); transform-box: fill-box;"/></g><rect height="125" width="125" x="0" y="0" style="transform-origin: 0px 0px; fill: none; stroke: rgb(24, 24, 36);"/></pattern><pattern id="tri-dots" height="43.302" patternUnits="userSpaceOnUse" width="25" x="0" y="-4" style="transform-origin: 0px 0px;"><circle cx="0" cy="4" opacity="0.6" r="2" style="opacity: 0.6; transform-origin: 2px 2px; fill: rgb(24, 24, 36); transform-box: fill-box;"/><circle cx="25" cy="4" opacity="0.6" r="2" style="opacity: 0.6; transform-origin: 2px 2px; fill: rgb(24, 24, 36); transform-box: fill-box;"/><circle cx="12.5" cy="25.651" opacity="0.6" r="2" style="opacity: 0.6; transform-origin: 2px 2px; fill: rgb(24, 24, 36); transform-box: fill-box;"/></pattern><pattern id="tri-grid" height="43.302" patternUnits="userSpaceOnUse" width="25" x="0" y="0" style="transform-origin: 0px 0px;"><g opacity="0.4" style="opacity: 0.4; transform-origin: 12.5px 21.651px; transform-box: fill-box;"><line x1="0" x2="25" y1="0" y2="0" style="opacity: 1; transform-origin: 12.5px 0px; fill: none; stroke: rgb(24, 24, 36); transform-box: fill-box;"/><line x1="0" x2="25" y1="21.651" y2="21.651" style="opacity: 1; transform-origin: 12.5px 0px; fill: none; stroke: rgb(24, 24, 36); transform-box: fill-box;"/><line x1="0" x2="25" y1="43.302" y2="43.302" style="opacity: 1; transform-origin: 12.5px 0px; fill: none; stroke: rgb(24, 24, 36); transform-box: fill-box;"/><line x1="0" x2="25" y1="0" y2="43.302" style="opacity: 1; transform-origin: 12.5px 21.651px; fill: none; stroke: rgb(24, 24, 36); transform-box: fill-box;"/><line x1="25" x2="0" y1="0" y2="43.302" style="opacity: 1; transform-origin: 12.5px 21.651px; fill: none; stroke: rgb(24, 24, 36); transform-box: fill-box;"/></g></pattern><pattern id="tri2-dots" height="25" patternUnits="userSpaceOnUse" width="43.302" x="-4" y="0" style="transform-origin: 0px 0px;"><circle cx="4" cy="0" opacity="0.6" r="2" style="opacity: 0.6; transform-origin: 2px 2px; fill: rgb(24, 24, 36); transform-box: fill-box;"/><circle cx="4" cy="25" opacity="0.6" r="2" style="opacity: 0.6; transform-origin: 2px 2px; fill: rgb(24, 24, 36); transform-box: fill-box;"/><circle cx="25.651" cy="12.5" opacity="0.6" r="2" style="opacity: 0.6; transform-origin: 2px 2px; fill: rgb(24, 24, 36); transform-box: fill-box;"/></pattern><pattern id="tri2-grid" height="25" patternUnits="userSpaceOnUse" width="43.302" x="0" y="0" style="transform-origin: 0px 0px;"><g opacity="0.4" style="opacity: 0.4; transform-origin: 21.651px 12.5px; transform-box: fill-box;"><line x1="0" x2="0" y1="0" y2="25" style="opacity: 1; transform-origin: 0px 12.5px; fill: none; stroke: rgb(24, 24, 36); transform-box: fill-box;"/><line x1="21.651" x2="21.651" y1="0" y2="25" style="opacity: 1; transform-origin: 0px 12.5px; fill: none; stroke: rgb(24, 24, 36); transform-box: fill-box;"/><line x1="43.302" x2="43.302" y1="0" y2="25" style="opacity: 1; transform-origin: 0px 12.5px; fill: none; stroke: rgb(24, 24, 36); transform-box: fill-box;"/><line x1="0" x2="43.302" y1="0" y2="25" style="opacity: 1; transform-origin: 21.651px 12.5px; fill: none; stroke: rgb(24, 24, 36); transform-box: fill-box;"/><line x1="0" x2="43.302" y1="25" y2="0" style="opacity: 1; transform-origin: 21.651px 12.5px; fill: none; stroke: rgb(24, 24, 36); transform-box: fill-box;"/></g></pattern><pattern id="square-checked" height="50" patternUnits="userSpaceOnUse" width="50" x="0" y="0" style="transform-origin: 0px 0px;"><rect height="25" opacity="0.4" width="25" x="0" y="0" style="opacity: 0.4; transform-origin: 0px 0px; fill: rgb(24, 24, 36);"/><rect height="25" opacity="0.4" width="25" x="25" y="25" style="opacity: 0.4; transform-origin: 0px 0px; fill: rgb(24, 24, 36);"/></pattern><radialGradient id="sphere-gradient" cx="65%" cy="35%" r="65%" style="transform-origin: 0px 0px;"><stop offset="0" stop-color="white" stop-opacity="0.3" style="transform-origin: 0px 0px;"/><stop offset="0.32" stop-color="white" stop-opacity="0" style="transform-origin: 0px 0px;"/><stop offset="0.33" stop-opacity="0" style="transform-origin: 0px 0px;"/><stop offset="1" stop-opacity="0.2" style="transform-origin: 0px 0px;"/></radialGradient><linearGradient id="card-gradient" style="transform-origin: 0px 0px;"><stop offset="0" stop-color="#999" style="transform-origin: 0px 0px;"/><stop offset="0.08" stop-color="#bbb" style="transform-origin: 0px 0px;"/><stop offset="0.92" stop-color="#bbb" style="transform-origin: 0px 0px;"/><stop offset="1" stop-color="#999" style="transform-origin: 0px 0px;"/></linearGradient><filter id="handdrawn" height="140%" width="140%" x="-20%" y="-20%" style="transform-origin: 0px 0px;"><feTurbulence baseFrequency="0.004 0.004" numOctaves="26" result="turbulence" stitchTiles="stitch" type="fractalNoise" style="transform-origin: 0px 0px;"/><feDisplacementMap in="SourceGraphic" in2="turbulence" result="displacementMap" scale="20" xChannelSelector="R" yChannelSelector="G" style="transform-origin: 0px 0px;"/></filter><filter id="pencil" filterUnits="objectBoundingBox" height="110%" width="110%" x="-10%" y="-10%" style="transform-origin: 0px 0px;"><feTurbulence baseFrequency="1.2" numOctaves="3" result="noise" type="fractalNoise" style="transform-origin: 0px 0px;"/><feDisplacementMap in="SourceGraphic" result="newSource" scale="2" xChannelSelector="R" yChannelSelector="G" style="transform-origin: 0px 0px;"/></filter><filter id="outline" style="transform-origin: 0px 0px;"><feMorphology in="SourceAlpha" operator="dilate" radius="1.2" result="DILATED" style="transform-origin: 0px 0px;"/><feFlood flood-color="var(--canvas-bg)" flood-opacity="1" result="WHITE" style="transform-origin: 0px 0px;"/><feComposite in="WHITE" in2="DILATED" operator="in" result="OUTLINE" style="transform-origin: 0px 0px;"/><feMerge style="transform-origin: 0px 0px;"><feMergeNode in="OUTLINE" style="transform-origin: 0px 0px;"/><feMergeNode in="SourceGraphic" style="transform-origin: 0px 0px;"/></feMerge></filter><symbol id="suit-c" height="24" viewBox="-12 -12 24 24" width="24" x="-12" y="-12" style="transform-origin: 0px 0px;"><path d="m0-10c2.3.1 4.2 1.9 4.3 4.2 0 1.6-.9 3-2.3 3.8.8-.3 1.6-.5 2.5-.5 2.4-.1 4.4 1.7 4.5 4.1v.2c0 2.3-1.9 4.2-4.2 4.2-.1 0-.2 0-.3 0-1.2-.1-2.4-.4-3.5-1 0 0-.3 2 2 5h-6c2.3-3 2-5 2-5-1.1.6-2.3.9-3.5 1-2.3.2-4.3-1.6-4.5-3.9 0-.1 0-.2 0-.3 0-2.4 1.9-4.3 4.3-4.3h.2c.9 0 1.7.2 2.5.5-1.4-.8-2.3-2.2-2.3-3.8.1-2.3 2-4.1 4.3-4.2z" style="transform-origin: 9px 10px; transform-box: fill-box;"/></symbol><symbol id="suit-s" height="24" viewBox="-12 -12 24 24" width="24" x="-12" y="-12" style="transform-origin: 0px 0px;"><path d="m0-10c-3 5-8 7-8 12 .1 2.1 1.9 3.9 4 4 1.1.1 2.2-.2 3-1 0 0 .3 2-2 5h6c-2-3-2-5-2-5 .8.8 1.9 1.1 3 1 2.1-.1 3.9-1.9 4-4 0-5-5-7-8-12z" style="transform-origin: 8px 10px; transform-box: fill-box;"/></symbol><symbol id="suit-h" height="24" viewBox="-12 -12 24 24" width="24" x="-12" y="-12" style="transform-origin: 0px 0px;"><path d="m0 8.5-1.3-1.3c-4.6-4.1-7.7-6.9-7.7-10.3-.1-2.7 2.1-4.9 4.8-5h.2c1.5 0 3.1.7 4 1.9 1-1.2 2.5-1.9 4-1.9 2.8-.1 4.9 2.1 5 4.8v.2c0 3.4-3.1 6.2-7.7 10.3z" style="transform-origin: 9.00164px 8.30164px; transform-box: fill-box;"/></symbol><symbol id="suit-d" height="24" viewBox="-12 -12 24 24" width="24" x="-12" y="-12" style="transform-origin: 0px 0px;"><path d="m7 0-7 10-7-10 7-10" style="transform-origin: 7px 10px; transform-box: fill-box;"/></symbol><pattern id="card-bg" height="8" patternUnits="userSpaceOnUse" width="6" style="transform-origin: 0px 0px;"><rect fill="#0f82f2" height="8" width="6" style="transform-origin: 0px 0px; fill: rgb(15, 130, 242);"/><line stroke="#eee" stroke-width="1" x2="6" y2="8" style="transform-origin: 3px 4px; stroke: rgb(238, 238, 238); transform-box: fill-box;"/><line stroke="#eee" stroke-width="1" x1="6" y2="8" style="transform-origin: 3px 4px; stroke: rgb(238, 238, 238); transform-box: fill-box;"/></pattern></defs><rect x="-960" y="-479" width="1920" height="958" fill="none" style="display: inline; opacity: 0.25; transform-origin: 0px 0px; fill: none;"/><g style="display: inline; transform-origin: 269.85px 262.5px; transform-box: fill-box;"><g transform="translate(-2115.6 -783.8000000000001) rotate(90) " style="transform: matrix(0, 1, -1, 0, -2115.6, -783.8); transform-origin: 0px 0px; transform-box: view-box;"><path fill="#22ab24" d="M-12.5,-12.5L237.5,-12.5L237.5,12.5L-12.5,12.5L-12.5,12.5L-12.5,12.5Z" style="transform: none; transform-origin: 125px 12.5px; fill: rgb(34, 171, 36); stroke: rgb(255, 255, 255); transform-box: fill-box;"/><path d="M12.5 -12.5v25M37.5 -12.5v25M62.5 -12.5v25M87.5 -12.5v25M112.5 -12.5v25M137.5 -12.5v25M162.5 -12.5v25M187.5 -12.5v25M212.5 -12.5v25" style="transform: none; transform-origin: 100px 12.5px; stroke: rgb(255, 255, 255); transform-box: fill-box;"/></g><g transform="translate(-2065.6 -783.8000000000001) rotate(90) " style="transform: matrix(0, 1, -1, 0, -2065.6, -783.8); transform-origin: 0px 0px; transform-box: view-box;"><path fill="#22ab24" d="M-12.5,-12.5L237.5,-12.5L237.5,12.5L-12.5,12.5L-12.5,12.5L-12.5,12.5Z" style="transform: none; transform-origin: 125px 12.5px; fill: rgb(34, 171, 36); stroke: rgb(255, 255, 255); transform-box: fill-box;"/><path d="M12.5 -12.5v25M37.5 -12.5v25M62.5 -12.5v25M87.5 -12.5v25M112.5 -12.5v25M137.5 -12.5v25M162.5 -12.5v25M187.5 -12.5v25M212.5 -12.5v25" style="transform: none; transform-origin: 100px 12.5px; stroke: rgb(255, 255, 255); transform-box: fill-box;"/></g><g transform="translate(-2015.6000000000001 -783.8000000000001) rotate(90) " style="transform: matrix(0, 1, -1, 0, -2015.6, -783.8); transform-origin: 0px 0px; transform-box: view-box;"><path fill="#22ab24" d="M-12.5,-12.5L237.5,-12.5L237.5,12.5L-12.5,12.5L-12.5,12.5L-12.5,12.5Z" style="transform: none; transform-origin: 125px 12.5px; fill: rgb(34, 171, 36); stroke: rgb(255, 255, 255); transform-box: fill-box;"/><path d="M12.5 -12.5v25M37.5 -12.5v25M62.5 -12.5v25M87.5 -12.5v25M112.5 -12.5v25M137.5 -12.5v25M162.5 -12.5v25M187.5 -12.5v25M212.5 -12.5v25" style="transform: none; transform-origin: 100px 12.5px; stroke: rgb(255, 255, 255); transform-box: fill-box;"/></g><g transform="translate(-2115.6 -508.8) rotate(90) " style="transform: matrix(0, 1, -1, 0, -2115.6, -508.8); transform-origin: 0px 0px; transform-box: view-box;"><path fill="#22ab24" d="M-12.5,-12.5L237.5,-12.5L237.5,12.5L-12.5,12.5L-12.5,12.5L-12.5,12.5Z" style="transform: none; transform-origin: 125px 12.5px; fill: rgb(34, 171, 36); stroke: rgb(255, 255, 255); transform-box: fill-box;"/><path d="M12.5 -12.5v25M37.5 -12.5v25M62.5 -12.5v25M87.5 -12.5v25M112.5 -12.5v25M137.5 -12.5v25M162.5 -12.5v25M187.5 -12.5v25M212.5 -12.5v25" style="transform: none; transform-origin: 100px 12.5px; stroke: rgb(255, 255, 255); transform-box: fill-box;"/></g><g transform="translate(-2065.6 -508.8) rotate(90) " style="transform: matrix(0, 1, -1, 0, -2065.6, -508.8); transform-origin: 0px 0px; transform-box: view-box;"><path fill="#22ab24" d="M-12.5,-12.5L237.5,-12.5L237.5,12.5L-12.5,12.5L-12.5,12.5L-12.5,12.5Z" style="transform: none; transform-origin: 125px 12.5px; fill: rgb(34, 171, 36); stroke: rgb(255, 255, 255); transform-box: fill-box;"/><path d="M12.5 -12.5v25M37.5 -12.5v25M62.5 -12.5v25M87.5 -12.5v25M112.5 -12.5v25M137.5 -12.5v25M162.5 -12.5v25M187.5 -12.5v25M212.5 -12.5v25" style="transform: none; transform-origin: 100px 12.5px; stroke: rgb(255, 255, 255); transform-box: fill-box;"/></g><g transform="translate(-2015.6000000000001 -508.8) rotate(90) " style="transform: matrix(0, 1, -1, 0, -2015.6, -508.8); transform-origin: 0px 0px; transform-box: view-box;"><path fill="#22ab24" d="M-12.5,-12.5L237.5,-12.5L237.5,12.5L-12.5,12.5L-12.5,12.5L-12.5,12.5Z" style="transform: none; transform-origin: 125px 12.5px; fill: rgb(34, 171, 36); stroke: rgb(255, 255, 255); transform-box: fill-box;"/><path d="M12.5 -12.5v25M37.5 -12.5v25M62.5 -12.5v25M87.5 -12.5v25M112.5 -12.5v25M137.5 -12.5v25M162.5 -12.5v25M187.5 -12.5v25M212.5 -12.5v25" style="transform: none; transform-origin: 100px 12.5px; stroke: rgb(255, 255, 255); transform-box: fill-box;"/></g><g transform="translate(-1953.3000000000002 -550.8000000000001)  " style="transform: matrix(1, 0, 0, 1, -1953.3, -550.8); transform-origin: 0px 0px; transform-box: view-box;"><path fill="#bfc212" d="M-12.5,-12.5L12.5,-12.5L12.5,12.5L-12.5,12.5L-12.5,12.5L-12.5,12.5Z" style="transform: none; transform-origin: 12.5px 12.5px; fill: rgb(191, 194, 18); stroke: rgb(255, 255, 255); transform-box: fill-box;"/><path d="" style="transform: none; transform-origin: 0px 0px; stroke: rgb(255, 255, 255); transform-box: fill-box;"/></g><g transform="translate(-1953.3000000000002 -500.8)  " style="transform: matrix(1, 0, 0, 1, -1953.3, -500.8); transform-origin: 0px 0px; transform-box: view-box;"><path fill="#bfc212" d="M-12.5,-12.5L12.5,-12.5L12.5,12.5L-12.5,12.5L-12.5,12.5L-12.5,12.5Z" style="transform: none; transform-origin: 12.5px 12.5px; fill: rgb(191, 194, 18); stroke: rgb(255, 255, 255); transform-box: fill-box;"/><path d="" style="transform: none; transform-origin: 0px 0px; stroke: rgb(255, 255, 255); transform-box: fill-box;"/></g><g transform="translate(-1903.3000000000002 -550.8000000000001)  " style="transform: matrix(1, 0, 0, 1, -1903.3, -550.8); transform-origin: 0px 0px; transform-box: view-box;"><path fill="#bfc212" d="M-12.5,-12.5L12.5,-12.5L12.5,12.5L-12.5,12.5L-12.5,12.5L-12.5,12.5Z" style="transform: none; transform-origin: 12.5px 12.5px; fill: rgb(191, 194, 18); stroke: rgb(255, 255, 255); transform-box: fill-box;"/><path d="" style="transform: none; transform-origin: 0px 0px; stroke: rgb(255, 255, 255); transform-box: fill-box;"/></g><g transform="translate(-1903.3000000000002 -500.8)  " style="transform: matrix(1, 0, 0, 1, -1903.3, -500.8); transform-origin: 0px 0px; transform-box: view-box;"><path fill="#bfc212" d="M-12.5,-12.5L12.5,-12.5L12.5,12.5L-12.5,12.5L-12.5,12.5L-12.5,12.5Z" style="transform: none; transform-origin: 12.5px 12.5px; fill: rgb(191, 194, 18); stroke: rgb(255, 255, 255); transform-box: fill-box;"/><path d="" style="transform: none; transform-origin: 0px 0px; stroke: rgb(255, 255, 255); transform-box: fill-box;"/></g><g transform="translate(-2418 -653)  " style="transform: matrix(1, 0, 0, 1, -2418, -653); transform-origin: 0px 0px; transform-box: view-box;"><path fill="#0f82f2" d="M-12.5,-12.5L237.5,-12.5L237.5,237.5L-12.5,237.5L-12.5,237.5L-12.5,237.5Z" style="transform: none; transform-origin: 125px 125px; fill: rgb(15, 130, 242); stroke: rgb(255, 255, 255); transform-box: fill-box;"/><path d="M12.5 -12.5v250M37.5 -12.5v250M62.5 -12.5v250M87.5 -12.5v250M112.5 -12.5v250M137.5 -12.5v250M162.5 -12.5v250M187.5 -12.5v250M212.5 -12.5v250M-12.5 12.5h250M-12.5 37.5h250M-12.5 62.5h250M-12.5 87.5h250M-12.5 112.5h250M-12.5 137.5h250M-12.5 162.5h250M-12.5 187.5h250M-12.5 212.5h250" style="transform: none; transform-origin: 125px 125px; stroke: rgb(255, 255, 255); transform-box: fill-box;"/></g></g><path d="" style="display: inline; transform-origin: 0px 0px; fill: none; stroke: rgb(255, 255, 255); stroke-width: 12.7273px; transform-box: fill-box;"/><path d="" style="display: inline; transform-origin: 0px 0px; fill: none; stroke: rgb(15, 130, 242); stroke-width: 5.45455px; transform-box: fill-box;"/></svg>