<?xml version="1.0" encoding="UTF-8" standalone="no"?>
<svg
   role="region"
   viewBox="405 179 840.5 252"
   aria-label="Toile vide"
   width="840.5"
   height="252"
   style="color:#3a3645;font-size:18px;line-height:28.8px;font-family:'Benton Sans', Helvetica, sans-serif;text-decoration:none;text-decoration-line:none;text-decoration-style:solid;text-decoration-color:#000000;text-anchor:middle;white-space:normal;stroke-linecap:round;stroke-linejoin:round;marker:none"
   version="1.1"
   id="svg53"
   sodipodi:docname="243.svg"
   inkscape:version="1.3.2 (1:1.3.2+202311252150+091e20ef0f)"
   xmlns:inkscape="http://www.inkscape.org/namespaces/inkscape"
   xmlns:sodipodi="http://sodipodi.sourceforge.net/DTD/sodipodi-0.dtd"
   xmlns="http://www.w3.org/2000/svg"
   xmlns:svg="http://www.w3.org/2000/svg">
  <sodipodi:namedview
     id="namedview53"
     pagecolor="#ffffff"
     bordercolor="#666666"
     borderopacity="1.0"
     inkscape:showpageshadow="2"
     inkscape:pageopacity="0.0"
     inkscape:pagecheckerboard="0"
     inkscape:deskcolor="#d1d1d1"
     inkscape:zoom="0.66737626"
     inkscape:cx="421.05183"
     inkscape:cy="125.86603"
     inkscape:window-width="1920"
     inkscape:window-height="1012"
     inkscape:window-x="1920"
     inkscape:window-y="0"
     inkscape:window-maximized="1"
     inkscape:current-layer="svg53" />
  <defs
     style="display:inline"
     id="defs34">
    <pattern
       id="square2-grid"
       height="50"
       patternUnits="userSpaceOnUse"
       width="50"
       x="0"
       y="0">
      <rect
         height="50"
         opacity="0.4"
         width="50"
         x="0"
         y="0"
         style="opacity: 0.4; transform-origin: 0px 0px; fill: none; stroke: rgb(24, 24, 36);"
         id="rect1" />
    </pattern>
    <pattern
       id="square-dots"
       height="25"
       patternUnits="userSpaceOnUse"
       width="25"
       x="-4"
       y="-4">
      <circle
         cx="4"
         cy="4"
         opacity="0.6"
         r="2"
         style="opacity: 0.6; transform-origin: 2px 2px; fill: rgb(24, 24, 36); transform-box: fill-box;"
         id="circle1" />
    </pattern>
    <pattern
       id="square-grid"
       height="125"
       patternUnits="userSpaceOnUse"
       width="125"
       x="0"
       y="0">
      <g
         opacity="0.4"
         style="opacity: 0.4; transform-origin: 62.5px 62.5px; transform-box: fill-box;"
         id="g8">
        <line
           x1="25"
           x2="25"
           y1="0"
           y2="125"
           style="opacity: 1; transform-origin: 0px 62.5px; fill: none; stroke: rgb(24, 24, 36); transform-box: fill-box;"
           id="line1" />
        <line
           x1="0"
           x2="125"
           y1="25"
           y2="25"
           style="opacity: 1; transform-origin: 62.5px 0px; fill: none; stroke: rgb(24, 24, 36); transform-box: fill-box;"
           id="line2" />
        <line
           x1="50"
           x2="50"
           y1="0"
           y2="125"
           style="opacity: 1; transform-origin: 0px 62.5px; fill: none; stroke: rgb(24, 24, 36); transform-box: fill-box;"
           id="line3" />
        <line
           x1="0"
           x2="125"
           y1="50"
           y2="50"
           style="opacity: 1; transform-origin: 62.5px 0px; fill: none; stroke: rgb(24, 24, 36); transform-box: fill-box;"
           id="line4" />
        <line
           x1="75"
           x2="75"
           y1="0"
           y2="125"
           style="opacity: 1; transform-origin: 0px 62.5px; fill: none; stroke: rgb(24, 24, 36); transform-box: fill-box;"
           id="line5" />
        <line
           x1="0"
           x2="125"
           y1="75"
           y2="75"
           style="opacity: 1; transform-origin: 62.5px 0px; fill: none; stroke: rgb(24, 24, 36); transform-box: fill-box;"
           id="line6" />
        <line
           x1="100"
           x2="100"
           y1="0"
           y2="125"
           style="opacity: 1; transform-origin: 0px 62.5px; fill: none; stroke: rgb(24, 24, 36); transform-box: fill-box;"
           id="line7" />
        <line
           x1="0"
           x2="125"
           y1="100"
           y2="100"
           style="opacity: 1; transform-origin: 62.5px 0px; fill: none; stroke: rgb(24, 24, 36); transform-box: fill-box;"
           id="line8" />
      </g>
      <rect
         height="125"
         width="125"
         x="0"
         y="0"
         style="transform-origin: 0px 0px; fill: none; stroke: rgb(24, 24, 36);"
         id="rect8" />
    </pattern>
    <pattern
       id="tri-dots"
       height="43.302"
       patternUnits="userSpaceOnUse"
       width="25"
       x="0"
       y="-4">
      <circle
         cx="0"
         cy="4"
         opacity="0.6"
         r="2"
         style="opacity: 0.6; transform-origin: 2px 2px; fill: rgb(24, 24, 36); transform-box: fill-box;"
         id="circle8" />
      <circle
         cx="25"
         cy="4"
         opacity="0.6"
         r="2"
         style="opacity: 0.6; transform-origin: 2px 2px; fill: rgb(24, 24, 36); transform-box: fill-box;"
         id="circle9" />
      <circle
         cx="12.5"
         cy="25.651"
         opacity="0.6"
         r="2"
         style="opacity: 0.6; transform-origin: 2px 2px; fill: rgb(24, 24, 36); transform-box: fill-box;"
         id="circle10" />
    </pattern>
    <pattern
       id="tri-grid"
       height="43.302"
       patternUnits="userSpaceOnUse"
       width="25"
       x="0"
       y="0">
      <g
         opacity="0.4"
         style="opacity: 0.4; transform-origin: 12.5px 21.651px; transform-box: fill-box;"
         id="g14">
        <line
           x1="0"
           x2="25"
           y1="0"
           y2="0"
           style="opacity: 1; transform-origin: 12.5px 0px; fill: none; stroke: rgb(24, 24, 36); transform-box: fill-box;"
           id="line10" />
        <line
           x1="0"
           x2="25"
           y1="21.651"
           y2="21.651"
           style="opacity: 1; transform-origin: 12.5px 0px; fill: none; stroke: rgb(24, 24, 36); transform-box: fill-box;"
           id="line11" />
        <line
           x1="0"
           x2="25"
           y1="43.302"
           y2="43.302"
           style="opacity: 1; transform-origin: 12.5px 0px; fill: none; stroke: rgb(24, 24, 36); transform-box: fill-box;"
           id="line12" />
        <line
           x1="0"
           x2="25"
           y1="0"
           y2="43.302"
           style="opacity: 1; transform-origin: 12.5px 21.651px; fill: none; stroke: rgb(24, 24, 36); transform-box: fill-box;"
           id="line13" />
        <line
           x1="25"
           x2="0"
           y1="0"
           y2="43.302"
           style="opacity: 1; transform-origin: 12.5px 21.651px; fill: none; stroke: rgb(24, 24, 36); transform-box: fill-box;"
           id="line14" />
      </g>
    </pattern>
    <pattern
       id="tri2-dots"
       height="25"
       patternUnits="userSpaceOnUse"
       width="43.302"
       x="-4"
       y="0">
      <circle
         cx="4"
         cy="0"
         opacity="0.6"
         r="2"
         style="opacity: 0.6; transform-origin: 2px 2px; fill: rgb(24, 24, 36); transform-box: fill-box;"
         id="circle14" />
      <circle
         cx="4"
         cy="25"
         opacity="0.6"
         r="2"
         style="opacity: 0.6; transform-origin: 2px 2px; fill: rgb(24, 24, 36); transform-box: fill-box;"
         id="circle15" />
      <circle
         cx="25.651"
         cy="12.5"
         opacity="0.6"
         r="2"
         style="opacity: 0.6; transform-origin: 2px 2px; fill: rgb(24, 24, 36); transform-box: fill-box;"
         id="circle16" />
    </pattern>
    <pattern
       id="tri2-grid"
       height="25"
       patternUnits="userSpaceOnUse"
       width="43.302"
       x="0"
       y="0">
      <g
         opacity="0.4"
         style="opacity: 0.4; transform-origin: 21.651px 12.5px; transform-box: fill-box;"
         id="g20">
        <line
           x1="0"
           x2="0"
           y1="0"
           y2="25"
           style="opacity: 1; transform-origin: 0px 12.5px; fill: none; stroke: rgb(24, 24, 36); transform-box: fill-box;"
           id="line16" />
        <line
           x1="21.651"
           x2="21.651"
           y1="0"
           y2="25"
           style="opacity: 1; transform-origin: 0px 12.5px; fill: none; stroke: rgb(24, 24, 36); transform-box: fill-box;"
           id="line17" />
        <line
           x1="43.302"
           x2="43.302"
           y1="0"
           y2="25"
           style="opacity: 1; transform-origin: 0px 12.5px; fill: none; stroke: rgb(24, 24, 36); transform-box: fill-box;"
           id="line18" />
        <line
           x1="0"
           x2="43.302"
           y1="0"
           y2="25"
           style="opacity: 1; transform-origin: 21.651px 12.5px; fill: none; stroke: rgb(24, 24, 36); transform-box: fill-box;"
           id="line19" />
        <line
           x1="0"
           x2="43.302"
           y1="25"
           y2="0"
           style="opacity: 1; transform-origin: 21.651px 12.5px; fill: none; stroke: rgb(24, 24, 36); transform-box: fill-box;"
           id="line20" />
      </g>
    </pattern>
    <pattern
       id="square-checked"
       height="50"
       patternUnits="userSpaceOnUse"
       width="50"
       x="0"
       y="0">
      <rect
         height="25"
         opacity="0.4"
         width="25"
         x="0"
         y="0"
         style="opacity: 0.4; transform-origin: 0px 0px; fill: rgb(24, 24, 36);"
         id="rect20" />
      <rect
         height="25"
         opacity="0.4"
         width="25"
         x="25"
         y="25"
         style="opacity: 0.4; transform-origin: 0px 0px; fill: rgb(24, 24, 36);"
         id="rect21" />
    </pattern>
    <radialGradient
       id="sphere-gradient"
       cx="0.64999998"
       cy="0.34999999"
       r="0.64999998">
      <stop
         offset="0"
         stop-color="white"
         stop-opacity="0.3"
         style="transform-origin: 0px 0px;"
         id="stop21" />
      <stop
         offset="0.32"
         stop-color="white"
         stop-opacity="0"
         style="transform-origin: 0px 0px;"
         id="stop22" />
      <stop
         offset="0.33"
         stop-opacity="0"
         style="transform-origin: 0px 0px;"
         id="stop23" />
      <stop
         offset="1"
         stop-opacity="0.2"
         style="transform-origin: 0px 0px;"
         id="stop24" />
    </radialGradient>
    <linearGradient
       id="card-gradient">
      <stop
         offset="0"
         stop-color="#999"
         style="transform-origin: 0px 0px;"
         id="stop25" />
      <stop
         offset="0.08"
         stop-color="#bbb"
         style="transform-origin: 0px 0px;"
         id="stop26" />
      <stop
         offset="0.92"
         stop-color="#bbb"
         style="transform-origin: 0px 0px;"
         id="stop27" />
      <stop
         offset="1"
         stop-color="#999"
         style="transform-origin: 0px 0px;"
         id="stop28" />
    </linearGradient>
    <filter
       id="handdrawn"
       height="1.4"
       width="1.4"
       x="-0.2"
       y="-0.2">
      <feTurbulence
         baseFrequency="0.004 0.004"
         numOctaves="26"
         result="turbulence"
         stitchTiles="stitch"
         type="fractalNoise"
         id="feTurbulence28" />
      <feDisplacementMap
         in="SourceGraphic"
         in2="turbulence"
         result="displacementMap"
         scale="20"
         xChannelSelector="R"
         yChannelSelector="G"
         id="feDisplacementMap28" />
    </filter>
    <filter
       id="pencil"
       filterUnits="objectBoundingBox"
       height="1.1"
       width="1.1"
       x="-0.1"
       y="-0.1">
      <feTurbulence
         baseFrequency="1.2"
         numOctaves="3"
         result="noise"
         type="fractalNoise"
         id="feTurbulence29" />
      <feDisplacementMap
         in="SourceGraphic"
         result="newSource"
         scale="2"
         xChannelSelector="R"
         yChannelSelector="G"
         id="feDisplacementMap29" />
    </filter>
    <filter
       id="outline">
      <feMorphology
         in="SourceAlpha"
         operator="dilate"
         radius="1.2"
         result="DILATED"
         id="feMorphology29" />
      <feFlood
         flood-color="var(--canvas-bg)"
         flood-opacity="1"
         result="WHITE"
         id="feFlood29" />
      <feComposite
         in="WHITE"
         in2="DILATED"
         operator="in"
         result="OUTLINE"
         id="feComposite29" />
      <feMerge
         id="feMerge30">
        <feMergeNode
           in="OUTLINE"
           style="transform-origin: 0px 0px;"
           id="feMergeNode29" />
        <feMergeNode
           in="SourceGraphic"
           style="transform-origin: 0px 0px;"
           id="feMergeNode30" />
      </feMerge>
    </filter>
    <pattern
       id="card-bg"
       height="8"
       patternUnits="userSpaceOnUse"
       width="6">
      <rect
         fill="#0f82f2"
         height="8"
         width="6"
         style="transform-origin: 0px 0px; fill: rgb(15, 130, 242);"
         id="rect33" />
      <line
         stroke="#eee"
         stroke-width="1"
         x2="6"
         y2="8"
         style="transform-origin: 3px 4px; stroke: rgb(238, 238, 238); transform-box: fill-box;"
         id="line33" />
      <line
         stroke="#eee"
         stroke-width="1"
         x1="6"
         y2="8"
         style="transform-origin: 3px 4px; stroke: rgb(238, 238, 238); transform-box: fill-box;"
         id="line34" />
    </pattern>
  </defs>
  <rect
     x="-836"
     y="-307.5"
     width="1573"
     height="516"
     fill="none"
     style="display:inline;opacity:0.25;fill:none"
     id="rect34" />
  <g
     style="display:inline"
     id="g52"
     transform="translate(-49.5,-49.5)">
    <g
       transform="translate(467.5,241.5)"
       id="g35">
      <path
         fill="#0f82f2"
         d="m -12.5,-12.5 h 250 v 250 h -250 v 0 0 z"
         style="fill:#0f82f2;stroke:#ffffff"
         id="path34" />
      <path
         d="m 12.5,-12.5 v 250 m 25,-250 v 250 m 25,-250 v 250 m 25,-250 v 250 m 25,-250 v 250 m 25,-250 v 250 m 25,-250 v 250 m 25,-250 v 250 m 25,-250 v 250 m -225,-225 h 250 m -250,25 h 250 m -250,25 h 250 m -250,25 h 250 m -250,25 h 250 m -250,25 h 250 m -250,25 h 250 m -250,25 h 250 m -250,25 h 250"
         style="stroke:#ffffff"
         id="path35" />
    </g>
    <g
       transform="translate(739.5,242.5)"
       id="g37">
      <path
         fill="#0f82f2"
         d="m -12.5,-12.5 h 250 v 250 h -250 v 0 0 z"
         style="fill:#0f82f2;stroke:#ffffff"
         id="path36" />
      <path
         d="m 12.5,-12.5 v 250 m 25,-250 v 250 m 25,-250 v 250 m 25,-250 v 250 m 25,-250 v 250 m 25,-250 v 250 m 25,-250 v 250 m 25,-250 v 250 m 25,-250 v 250 m -225,-225 h 250 m -250,25 h 250 m -250,25 h 250 m -250,25 h 250 m -250,25 h 250 m -250,25 h 250 m -250,25 h 250 m -250,25 h 250 m -250,25 h 250"
         style="stroke:#ffffff"
         id="path37" />
    </g>
    <g
       transform="rotate(90,386.5,628)"
       id="g39">
      <path
         fill="#22ab24"
         d="m -12.5,-12.5 h 250 v 25 h -250 v 0 0 z"
         style="fill:#22ab24;stroke:#ffffff"
         id="path38" />
      <path
         d="m 12.5,-12.5 v 25 m 25,-25 v 25 m 25,-25 v 25 m 25,-25 v 25 m 25,-25 v 25 m 25,-25 v 25 m 25,-25 v 25 m 25,-25 v 25 m 25,-25 v 25"
         style="stroke:#ffffff"
         id="path39" />
    </g>
    <g
       transform="rotate(90,411.5,653)"
       id="g41">
      <path
         fill="#22ab24"
         d="m -12.5,-12.5 h 250 v 25 h -250 v 0 0 z"
         style="fill:#22ab24;stroke:#ffffff"
         id="path40" />
      <path
         d="m 12.5,-12.5 v 25 m 25,-25 v 25 m 25,-25 v 25 m 25,-25 v 25 m 25,-25 v 25 m 25,-25 v 25 m 25,-25 v 25 m 25,-25 v 25 m 25,-25 v 25"
         style="stroke:#ffffff"
         id="path41" />
    </g>
    <g
       transform="rotate(90,436.5,678)"
       id="g43">
      <path
         fill="#22ab24"
         d="m -12.5,-12.5 h 250 v 25 h -250 v 0 0 z"
         style="fill:#22ab24;stroke:#ffffff"
         id="path42" />
      <path
         d="m 12.5,-12.5 v 25 m 25,-25 v 25 m 25,-25 v 25 m 25,-25 v 25 m 25,-25 v 25 m 25,-25 v 25 m 25,-25 v 25 m 25,-25 v 25 m 25,-25 v 25"
         style="stroke:#ffffff"
         id="path43" />
    </g>
    <g
       transform="rotate(90,461.5,703)"
       id="g45">
      <path
         fill="#22ab24"
         d="m -12.5,-12.5 h 250 v 25 h -250 v 0 0 z"
         style="fill:#22ab24;stroke:#ffffff"
         id="path44" />
      <path
         d="m 12.5,-12.5 v 25 m 25,-25 v 25 m 25,-25 v 25 m 25,-25 v 25 m 25,-25 v 25 m 25,-25 v 25 m 25,-25 v 25 m 25,-25 v 25 m 25,-25 v 25"
         style="stroke:#ffffff"
         id="path45" />
    </g>
    <g
       transform="translate(1282,463)"
       id="g47">
      <path
         fill="#bfc212"
         d="m -12.5,-12.5 h 25 v 25 h -25 v 0 0 z"
         style="fill:#bfc212;stroke:#ffffff"
         id="path46" />
      <path
         d=""
         style="stroke:#ffffff"
         id="path47" />
    </g>
    <g
       transform="translate(1257,413)"
       id="g49">
      <path
         fill="#bfc212"
         d="m -12.5,-12.5 h 25 v 25 h -25 v 0 0 z"
         style="fill:#bfc212;stroke:#ffffff"
         id="path48" />
      <path
         d=""
         style="stroke:#ffffff"
         id="path49" />
    </g>
    <g
       transform="translate(1232,363)"
       id="g51">
      <path
         fill="#bfc212"
         d="m -12.5,-12.5 h 25 v 25 h -25 v 0 0 z"
         style="fill:#bfc212;stroke:#ffffff"
         id="path50" />
      <path
         d=""
         style="stroke:#ffffff"
         id="path51" />
    </g>
  </g>
  <path
     d=""
     style="display:inline;fill:none;stroke:#ffffff;stroke-width:7px"
     id="path52" />
  <path
     d=""
     style="display:inline;fill:none;stroke:#0f82f2;stroke-width:3px"
     id="path53" />
  <g
     id="suit-c"
     transform="translate(-49.5,-49.5)">
    <path
       d="m 0,-10 c 2.3,0.1 4.2,1.9 4.3,4.2 0,1.6 -0.9,3 -2.3,3.8 0.8,-0.3 1.6,-0.5 2.5,-0.5 2.4,-0.1 4.4,1.7 4.5,4.1 V 1.8 C 9,4.1 7.1,6 4.8,6 4.7,6 4.6,6 4.5,6 3.3,5.9 2.1,5.6 1,5 1,5 0.7,7 3,10 H -3 C -0.7,7 -1,5 -1,5 -2.1,5.6 -3.3,5.9 -4.5,6 -6.8,6.2 -8.8,4.4 -9,2.1 -9,2 -9,1.9 -9,1.8 c 0,-2.4 1.9,-4.3 4.3,-4.3 h 0.2 c 0.9,0 1.7,0.2 2.5,0.5 -1.4,-0.8 -2.3,-2.2 -2.3,-3.8 0.1,-2.3 2,-4.1 4.3,-4.2 z"
       id="path30" />
  </g>
  <g
     id="suit-s"
     transform="translate(-49.5,-49.5)">
    <path
       d="m 0,-10 c -3,5 -8,7 -8,12 0.1,2.1 1.9,3.9 4,4 1.1,0.1 2.2,-0.2 3,-1 0,0 0.3,2 -2,5 H 3 C 1,7 1,5 1,5 1.8,5.8 2.9,6.1 4,6 6.1,5.9 7.9,4.1 8,2 8,-3 3,-5 0,-10 Z"
       id="path31" />
  </g>
  <g
     id="suit-h"
     transform="translate(-49.5,-49.5)">
    <path
       d="M 0,8.5 -1.3,7.2 C -5.9,3.1 -9,0.3 -9,-3.1 -9.1,-5.8 -6.9,-8 -4.2,-8.1 H -4 c 1.5,0 3.1,0.7 4,1.9 1,-1.2 2.5,-1.9 4,-1.9 2.8,-0.1 4.9,2.1 5,4.8 v 0.2 C 9,0.3 5.9,3.1 1.3,7.2 Z"
       id="path32" />
  </g>
  <g
     id="suit-d"
     transform="translate(-49.5,-49.5)">
    <path
       d="M 7,0 0,10 -7,0 0,-10"
       id="path33" />
  </g>
</svg>
